{"title":"Insidious Chapter 3 [2015] (No Cinavia) 1080p seeders: 1leechers","uid":12966814,"size":4149382364,"categoryP":"video","categoryS":"hd___movies","magnet":"?xt=urn:btih:044030bb9cfb95329155385bd51bcf825c9bc9c2&amp;dn=Insidious+Chapter+3+%5B2015%5D+%28No+Cinavia%29+1080p+seeders%3A+1leechers&amp;tr=udp%3A%2F%2Ftracker.leechers-paradise.org%3A6969&amp;tr=udp%3A%2F%2Fzer0day.ch%3A1337&amp;tr=udp%3A%2F%2Fopen.demonii.com%3A1337&amp;tr=udp%3A%2F%2Ftracker.coppersurfer.tk%3A6969&amp;tr=udp%3A%2F%2Fexodus.desync.com%3A6969","seeders":0,"leechers":1,"uploader":"AlienMethod","files":6,"time":1449895915,"description":"x264/mp4\r\n6-Channel    (audio 1)\r\n2-Channel    (audio 2)\r\nCinavia Removed (CinEx HD)\r\nEnglish Subs\r\n\r\n&quot;A prequel set before the haunting of the Lambert family that reveals how gifted\r\npsychic Elise Rainier reluctantly agrees to use her ability to contact the dead in order \r\nto help a teenage girl who has been targeted by a dangerous supernatural entity.&quot;\r\n\r\n\r\n\r\nGeneral\r\nComplete name: Insidious Chapter 3 [2015] (NoCinavia) 1080p\r\nInsidious Chapter 3 [2015] (NoCinavia) 1080p.mp4\r\nFormat : MPEG-4\r\nFormat profile : Base Media\r\nCodec ID : isom\r\nFile size : 3.86 GiB\r\nDuration : 1h 37mn\r\nOverall bit rate mode : Variable\r\nOverall bit rate : 5 682 Kbps\r\nEncoded date : UTC 2015-12-12 00:56:17\r\nTagged date : UTC 2015-12-12 00:56:17\r\nWriting application : My MP4Box GUI 0.6.0.6 \r\n\r\nVideo\r\nID : 1\r\nFormat : AVC\r\nFormat/Info : Advanced Video Codec\r\nFormat profile :   \r\nFormat settings, CABAC : Yes\r\nFormat settings, ReFrames : 4 frames\r\nCodec ID : avc1\r\nCodec ID/Info : Advanced Video Coding\r\nDuration : 1h 37mn\r\nBit rate : 4 882 Kbps\r\nMaximum bit rate : 23.3 Mbps\r\nWidth : 1 920 pixels\r\nHeight : 800 pixels\r\nDisplay aspect ratio : 2.40:1\r\nFrame rate mode : Constant\r\nFrame rate : 23.976 fps\r\nColor space : YUV\r\nChroma subsampling : 4:2:0\r\nBit depth : 8 bits\r\nScan type : Progressive\r\nBits/(Pixel*Frame) : 0.133\r\nStream size : 3.32 GiB (86%)\r\nTitle : Insidious 3 (Encode).h264\r\nWriting library : x264 core 142 r2479 dd79a61\r\nEncoded date : UTC 2015-12-12 00:56:17\r\nTagged date : UTC 2015-12-12 00:56:45\r\n\r\nAudio #1\r\nID : 2\r\nFormat : AC-3\r\nFormat/Info : Audio Coding 3\r\nMode extension : CM (complete main)\r\nFormat settings, Endianness : Big\r\nCodec ID : ac-3\r\nDuration : 1h 37mn\r\nBit rate mode : Constant\r\nBit rate : 640 Kbps\r\nChannel(s) : 6 channels\r\nChannel positions : Front: L C R, Side: L R, LFE\r\nSampling rate : 48.0 KHz\r\nBit depth : 16 bits\r\nCompression mode : Lossy\r\nStream size : 446 MiB (11%)\r\nTitle : Insidious 3 (CinEx)_track2_und.ac3\r\nEncoded date : UTC 2015-12-12 00:56:40\r\nTagged date : UTC 2015-12-12 00:56:45\r\n\r\nAudio #2\r\nID : 3\r\nFormat : AAC\r\nFormat/Info : Advanced Audio Codec\r\nFormat profile : LC\r\nCodec ID : 40\r\nDuration : 1h 37mn\r\nBit rate mode : Variable\r\nBit rate : 156 Kbps\r\nMaximum bit rate : 258 Kbps\r\nChannel(s) : 2 channels\r\nChannel positions : Front: L R\r\nSampling rate : 48.0 KHz\r\nCompression mode : Lossy\r\nStream size : 109 MiB (3%)\r\nTitle : Insidious 3 (CinEx)_track2_und_Output.m4a\r\nEncoded date : UTC 2015-12-12 00:56:44\r\nTagged date : UTC 2015-12-12 00:56:45","torrent":{"xt":"urn:btih:044030bb9cfb95329155385bd51bcf825c9bc9c2","amp;dn":"Insidious+Chapter+3+%5B2015%5D+%28No+Cinavia%29+1080p+seeders%3A+1leechers","amp;tr":["udp%3A%2F%2Ftracker.leechers-paradise.org%3A6969","udp%3A%2F%2Fzer0day.ch%3A1337","udp%3A%2F%2Fopen.demonii.com%3A1337","udp%3A%2F%2Ftracker.coppersurfer.tk%3A6969","udp%3A%2F%2Fexodus.desync.com%3A6969"],"infoHash":"044030bb9cfb95329155385bd51bcf825c9bc9c2","infoHashBuffer":{"type":"Buffer","data":[4,64,48,187,156,251,149,50,145,85,56,91,213,27,207,130,92,155,201,194]},"announce":[],"urlList":[]}}